<svg width="167" height="72" viewBox="0 0 167 72" fill="none" xmlns="http://www.w3.org/2000/svg">
<path d="M49.1769 13.1769C52.1741 14.9073 54.8011 17.2111 56.9079 19.9568C59.0147 22.7025 60.5601 25.8362 61.4558 29.1791C62.3516 32.522 62.5801 36.0086 62.1284 39.4399C61.6766 42.8711 60.5535 46.1798 58.8231 49.1769C57.0927 52.1741 54.7889 54.8011 52.0432 56.9079C49.2975 59.0147 46.1638 60.5601 42.8209 61.4559C39.478 62.3516 35.9914 62.5801 32.5601 62.1284C29.1289 61.6766 25.8203 60.5535 22.8231 58.8231L36 36L49.1769 13.1769Z" fill="#404347"/>
<circle cx="34.8256" cy="36.7071" r="12.2357" fill="#DDE1E6"/>
<path d="M87.456 42.776H94.624V47H81.984V24.536H87.456V42.776ZM105.362 47.256C103.613 47.256 102.034 46.8827 100.626 46.136C99.2393 45.3893 98.1407 44.3227 97.33 42.936C96.5407 41.5493 96.146 39.928 96.146 38.072C96.146 36.2373 96.5513 34.6267 97.362 33.24C98.1727 31.832 99.282 30.7547 100.69 30.008C102.098 29.2613 103.677 28.888 105.426 28.888C107.175 28.888 108.754 29.2613 110.162 30.008C111.57 30.7547 112.679 31.832 113.49 33.24C114.301 34.6267 114.706 36.2373 114.706 38.072C114.706 39.9067 114.29 41.528 113.458 42.936C112.647 44.3227 111.527 45.3893 110.098 46.136C108.69 46.8827 107.111 47.256 105.362 47.256ZM105.362 42.52C106.407 42.52 107.293 42.136 108.018 41.368C108.765 40.6 109.138 39.5013 109.138 38.072C109.138 36.6427 108.775 35.544 108.05 34.776C107.346 34.008 106.471 33.624 105.426 33.624C104.359 33.624 103.474 34.008 102.77 34.776C102.066 35.5227 101.714 36.6213 101.714 38.072C101.714 39.5013 102.055 40.6 102.738 41.368C103.442 42.136 104.317 42.52 105.362 42.52ZM124.393 28.888C125.652 28.888 126.75 29.144 127.689 29.656C128.649 30.168 129.385 30.84 129.897 31.672V29.144H135.369V46.968C135.369 48.6107 135.038 50.0933 134.377 51.416C133.737 52.76 132.745 53.8267 131.401 54.616C130.078 55.4053 128.425 55.8 126.441 55.8C123.796 55.8 121.652 55.1707 120.009 53.912C118.366 52.6747 117.428 50.9893 117.193 48.856H122.601C122.772 49.5387 123.177 50.072 123.817 50.456C124.457 50.8613 125.246 51.064 126.185 51.064C127.316 51.064 128.212 50.7333 128.873 50.072C129.556 49.432 129.897 48.3973 129.897 46.968V44.44C129.364 45.272 128.628 45.9547 127.689 46.488C126.75 47 125.652 47.256 124.393 47.256C122.921 47.256 121.588 46.8827 120.393 46.136C119.198 45.368 118.249 44.2907 117.545 42.904C116.862 41.496 116.521 39.8747 116.521 38.04C116.521 36.2053 116.862 34.5947 117.545 33.208C118.249 31.8213 119.198 30.7547 120.393 30.008C121.588 29.2613 122.921 28.888 124.393 28.888ZM129.897 38.072C129.897 36.7067 129.513 35.6293 128.745 34.84C127.998 34.0507 127.081 33.656 125.993 33.656C124.905 33.656 123.977 34.0507 123.209 34.84C122.462 35.608 122.089 36.6747 122.089 38.04C122.089 39.4053 122.462 40.4933 123.209 41.304C123.977 42.0933 124.905 42.488 125.993 42.488C127.081 42.488 127.998 42.0933 128.745 41.304C129.513 40.5147 129.897 39.4373 129.897 38.072ZM147.456 47.256C145.706 47.256 144.128 46.8827 142.72 46.136C141.333 45.3893 140.234 44.3227 139.424 42.936C138.634 41.5493 138.24 39.928 138.24 38.072C138.24 36.2373 138.645 34.6267 139.456 33.24C140.266 31.832 141.376 30.7547 142.784 30.008C144.192 29.2613 145.77 28.888 147.52 28.888C149.269 28.888 150.848 29.2613 152.256 30.008C153.664 30.7547 154.773 31.832 155.584 33.24C156.394 34.6267 156.8 36.2373 156.8 38.072C156.8 39.9067 156.384 41.528 155.552 42.936C154.741 44.3227 153.621 45.3893 152.192 46.136C150.784 46.8827 149.205 47.256 147.456 47.256ZM147.456 42.52C148.501 42.52 149.386 42.136 150.112 41.368C150.858 40.6 151.232 39.5013 151.232 38.072C151.232 36.6427 150.869 35.544 150.144 34.776C149.44 34.008 148.565 33.624 147.52 33.624C146.453 33.624 145.568 34.008 144.864 34.776C144.16 35.5227 143.808 36.6213 143.808 38.072C143.808 39.5013 144.149 40.6 144.832 41.368C145.536 42.136 146.41 42.52 147.456 42.52ZM162.263 47.256C161.303 47.256 160.513 46.9787 159.895 46.424C159.297 45.848 158.999 45.144 158.999 44.312C158.999 43.4587 159.297 42.744 159.895 42.168C160.513 41.592 161.303 41.304 162.263 41.304C163.201 41.304 163.969 41.592 164.567 42.168C165.185 42.744 165.495 43.4587 165.495 44.312C165.495 45.144 165.185 45.848 164.567 46.424C163.969 46.9787 163.201 47.256 162.263 47.256Z" fill="#404347"/>
</svg>
