<svg width="74" height="74" viewBox="0 0 74 74" fill="none" xmlns="http://www.w3.org/2000/svg">
                        <circle cx="37" cy="37" r="37" fill="#EAFAF3"/>
                        <path opacity="0.3" fill-rule="evenodd" clip-rule="evenodd" d="M36.3433 25.0408H48.1183C49.5113 25.0414 50.6402 26.1707 50.6402 27.5637C50.6402 28.9567 49.5114 30.0861 48.1184 30.0868H36.3433C34.9499 30.0868 33.8203 28.9572 33.8203 27.5638C33.8203 26.1704 34.9499 25.0408 36.3433 25.0408ZM26.2507 45.2258H48.1177C49.5106 45.2264 50.6395 46.3557 50.6396 47.7487C50.6396 49.1417 49.5107 50.2711 48.1178 50.2718H26.2507C24.8577 50.2712 23.7288 49.1418 23.7288 47.7488C23.7287 46.3559 24.8576 45.2264 26.2505 45.2258L26.2507 45.2258ZM26.2507 35.1338H48.1177C49.5111 35.1338 50.6407 36.2634 50.6407 37.6568C50.6407 39.0502 49.5111 40.1798 48.1177 40.1798H26.2507C25.349 40.1802 24.5157 39.6994 24.0647 38.9186C23.6138 38.1378 23.6138 37.1757 24.0648 36.3949C24.5158 35.6141 25.3491 35.1333 26.2508 35.1338L26.2507 35.1338Z" fill="#2DCA8C"/>
                        <path fill-rule="evenodd" clip-rule="evenodd" d="M25.1225 32.4549L29.9575 28.2369C30.1401 28.0772 30.2448 27.8464 30.2448 27.6039C30.2448 27.3613 30.1401 27.1305 29.9575 26.9709L25.1285 22.7269C24.8805 22.5062 24.526 22.4521 24.2235 22.5887C23.921 22.7252 23.7271 23.0269 23.7285 23.3589L23.7285 31.8179C23.7284 32.1478 23.9212 32.4473 24.2214 32.5838C24.5217 32.7203 24.8741 32.6687 25.1226 32.4518L25.1225 32.4549Z" fill="#2DCA8C"/>
                    </svg> 